<svg width="300" height="159" viewBox="0 0 300 159" fill="none" xmlns="http://www.w3.org/2000/svg">
<g filter="url(#filter0_d_8_21)">
<g clip-path="url(#clip0_8_21)">
<path d="M2 5C2 2.79086 3.79086 1 6 1H150.344C152.553 1 154.344 2.79086 154.344 5V76H6C3.79086 76 2 74.2091 2 72V5Z" fill="#212121"/>
<g filter="url(#filter1_d_8_21)">
<path d="M44.6326 55V19.192H44.6806L62.8726 45.016L60.9046 44.632L79.0486 19.192H79.1446V55H74.5366V29.752L74.8246 32.104L61.7206 50.632H61.6246L48.3286 32.104L49.1446 29.944V55H44.6326ZM93.821 34.264L93.677 35.992L94.301 35.128L108.509 20.296H114.509L100.157 35.176L115.325 55H109.421L96.749 38.152L93.821 40.984V55H89.117V20.296H93.821V34.264Z" fill="white"/>
</g>
</g>
<path d="M154.344 76.5H154.844V76V5C154.844 2.51472 152.829 0.5 150.344 0.5H6C3.51472 0.5 1.5 2.51472 1.5 5V72C1.5 74.4853 3.51471 76.5 6 76.5H154.344Z" stroke="#484848"/>
</g>
<g filter="url(#filter2_d_8_21)">
<g clip-path="url(#clip1_8_21)">
<path d="M61.7656 76H293.312C295.522 76 297.312 77.7909 297.312 80V147C297.312 149.209 295.522 151 293.312 151H65.7656C63.5565 151 61.7656 149.209 61.7656 147V76Z" fill="#02BFAB"/>
<g filter="url(#filter3_d_8_21)">
<path d="M116.85 95.296C119.378 95.296 121.538 95.728 123.33 96.592C125.122 97.424 126.498 98.64 127.458 100.24C128.45 101.84 128.946 103.776 128.946 106.048C128.946 107.424 128.738 108.784 128.322 110.128C127.906 111.44 127.234 112.64 126.306 113.728C125.41 114.784 124.226 115.632 122.754 116.272C121.282 116.912 119.49 117.232 117.378 117.232H112.242V130H107.586V95.296H116.85ZM117.33 112.768C118.706 112.768 119.842 112.544 120.738 112.096C121.634 111.648 122.338 111.088 122.85 110.416C123.362 109.712 123.73 108.976 123.954 108.208C124.178 107.44 124.29 106.752 124.29 106.144C124.29 105.44 124.178 104.72 123.954 103.984C123.73 103.216 123.346 102.528 122.802 101.92C122.29 101.28 121.602 100.768 120.738 100.384C119.906 99.968 118.866 99.76 117.618 99.76H112.242V112.768H117.33ZM135.029 92.848H139.493V130H135.029V92.848ZM153.504 130.768C151.712 130.768 150.224 130.224 149.04 129.136C147.888 128.016 147.28 126.576 147.216 124.816V110.128H151.68V123.232C151.744 124.32 152.048 125.2 152.592 125.872C153.168 126.544 154.064 126.896 155.28 126.928C156.4 126.928 157.392 126.608 158.256 125.968C159.152 125.296 159.872 124.4 160.416 123.28C160.96 122.128 161.232 120.832 161.232 119.392V110.128H165.696V130H161.616L161.232 125.104L161.472 125.968C161.088 126.896 160.496 127.728 159.696 128.464C158.928 129.168 158.016 129.728 156.96 130.144C155.904 130.56 154.752 130.768 153.504 130.768ZM182.971 139.84C181.499 139.84 180.203 139.664 179.083 139.312C177.963 138.992 176.939 138.528 176.011 137.92C175.115 137.312 174.251 136.624 173.419 135.856L176.011 132.832C177.067 133.824 178.139 134.592 179.227 135.136C180.315 135.68 181.531 135.952 182.875 135.952C184.379 135.952 185.643 135.696 186.667 135.184C187.723 134.704 188.523 134.016 189.067 133.12C189.611 132.256 189.883 131.248 189.883 130.096L189.931 124.72L190.315 125.584C189.739 126.96 188.699 128.128 187.195 129.088C185.691 130.016 183.867 130.48 181.723 130.48C179.899 130.48 178.219 130.016 176.683 129.088C175.179 128.16 173.963 126.912 173.035 125.344C172.139 123.744 171.691 121.952 171.691 119.968C171.691 117.888 172.171 116.064 173.131 114.496C174.091 112.896 175.355 111.632 176.923 110.704C178.491 109.776 180.203 109.312 182.059 109.312C183.819 109.312 185.419 109.68 186.859 110.416C188.331 111.12 189.403 112.032 190.075 113.152L189.835 113.968L190.315 110.128H194.395V130.144C194.395 131.936 193.931 133.568 193.003 135.04C192.075 136.512 190.763 137.68 189.067 138.544C187.371 139.408 185.339 139.84 182.971 139.84ZM176.155 119.872C176.155 121.152 176.459 122.32 177.067 123.376C177.675 124.432 178.491 125.264 179.515 125.872C180.571 126.48 181.739 126.784 183.019 126.784C184.203 126.784 185.259 126.576 186.187 126.16C187.147 125.712 187.947 125.12 188.587 124.384C189.227 123.616 189.675 122.736 189.931 121.744V117.808C189.643 116.848 189.163 116.016 188.491 115.312C187.819 114.576 187.019 114.016 186.091 113.632C185.163 113.216 184.139 113.008 183.019 113.008C181.739 113.008 180.571 113.296 179.515 113.872C178.491 114.448 177.675 115.264 177.067 116.32C176.459 117.344 176.155 118.528 176.155 119.872ZM202.107 110.128H206.571V130H202.107V110.128ZM201.771 102.928C201.771 102.224 202.043 101.632 202.587 101.152C203.163 100.672 203.787 100.432 204.459 100.432C205.131 100.432 205.723 100.672 206.235 101.152C206.779 101.632 207.051 102.224 207.051 102.928C207.051 103.664 206.779 104.272 206.235 104.752C205.723 105.2 205.131 105.424 204.459 105.424C203.787 105.424 203.163 105.184 202.587 104.704C202.043 104.224 201.771 103.632 201.771 102.928ZM218.278 110.128L218.662 114.976L218.47 114.208C219.11 112.736 220.15 111.568 221.59 110.704C223.03 109.808 224.694 109.36 226.582 109.36C228.47 109.36 230.006 109.92 231.19 111.04C232.406 112.128 233.03 113.552 233.062 115.312V130H228.55V116.896C228.518 115.808 228.198 114.928 227.59 114.256C227.014 113.552 226.102 113.2 224.854 113.2C223.702 113.2 222.662 113.52 221.734 114.16C220.806 114.8 220.07 115.68 219.526 116.8C219.014 117.92 218.758 119.216 218.758 120.688V130H214.294V110.128H218.278ZM246.394 130.384C244.986 130.384 243.61 130.144 242.266 129.664C240.954 129.152 239.866 128.4 239.002 127.408L240.874 124.816C241.706 125.616 242.554 126.224 243.418 126.64C244.314 127.024 245.194 127.216 246.058 127.216C246.698 127.216 247.29 127.136 247.834 126.976C248.378 126.816 248.81 126.56 249.13 126.208C249.482 125.824 249.658 125.312 249.658 124.672C249.658 123.968 249.418 123.408 248.938 122.992C248.49 122.576 247.898 122.24 247.162 121.984C246.458 121.728 245.706 121.488 244.906 121.264C243.274 120.72 242.026 119.968 241.162 119.008C240.298 118.048 239.866 116.88 239.866 115.504C239.866 114.448 240.122 113.472 240.634 112.576C241.178 111.648 241.962 110.896 242.986 110.32C244.042 109.744 245.338 109.456 246.874 109.456C248.25 109.456 249.482 109.632 250.57 109.984C251.658 110.304 252.682 110.848 253.642 111.616L251.866 114.4C251.29 113.792 250.602 113.344 249.802 113.056C249.002 112.768 248.282 112.608 247.642 112.576C247.098 112.544 246.57 112.624 246.058 112.816C245.578 113.008 245.178 113.28 244.858 113.632C244.538 113.984 244.378 114.4 244.378 114.88C244.378 115.552 244.602 116.096 245.05 116.512C245.498 116.928 246.074 117.264 246.778 117.52C247.514 117.744 248.234 117.984 248.938 118.24C249.93 118.528 250.81 118.912 251.578 119.392C252.346 119.872 252.954 120.464 253.402 121.168C253.882 121.872 254.122 122.752 254.122 123.808C254.122 124.992 253.834 126.096 253.258 127.12C252.714 128.112 251.866 128.912 250.714 129.52C249.594 130.096 248.154 130.384 246.394 130.384Z" fill="white"/>
</g>
</g>
<path d="M62.2656 76.5H293.312C295.245 76.5 296.812 78.067 296.812 80V147C296.812 148.933 295.245 150.5 293.312 150.5H65.7656C63.8326 150.5 62.2656 148.933 62.2656 147V76.5Z" stroke="#007D6F"/>
</g>
<defs>
<filter id="filter0_d_8_21" x="-3" y="0" width="162.344" height="85" filterUnits="userSpaceOnUse" color-interpolation-filters="sRGB">
<feFlood flood-opacity="0" result="BackgroundImageFix"/>
<feColorMatrix in="SourceAlpha" type="matrix" values="0 0 0 0 0 0 0 0 0 0 0 0 0 0 0 0 0 0 127 0" result="hardAlpha"/>
<feOffset dy="4"/>
<feGaussianBlur stdDeviation="2"/>
<feComposite in2="hardAlpha" operator="out"/>
<feColorMatrix type="matrix" values="0 0 0 0 0 0 0 0 0 0 0 0 0 0 0 0 0 0 0.25 0"/>
<feBlend mode="normal" in2="BackgroundImageFix" result="effect1_dropShadow_8_21"/>
<feBlend mode="normal" in="SourceGraphic" in2="effect1_dropShadow_8_21" result="shape"/>
</filter>
<filter id="filter1_d_8_21" x="40.6326" y="19.192" width="78.6924" height="43.808" filterUnits="userSpaceOnUse" color-interpolation-filters="sRGB">
<feFlood flood-opacity="0" result="BackgroundImageFix"/>
<feColorMatrix in="SourceAlpha" type="matrix" values="0 0 0 0 0 0 0 0 0 0 0 0 0 0 0 0 0 0 127 0" result="hardAlpha"/>
<feOffset dy="4"/>
<feGaussianBlur stdDeviation="2"/>
<feComposite in2="hardAlpha" operator="out"/>
<feColorMatrix type="matrix" values="0 0 0 0 0 0 0 0 0 0 0 0 0 0 0 0 0 0 0.25 0"/>
<feBlend mode="normal" in2="BackgroundImageFix" result="effect1_dropShadow_8_21"/>
<feBlend mode="normal" in="SourceGraphic" in2="effect1_dropShadow_8_21" result="shape"/>
</filter>
<filter id="filter2_d_8_21" x="57.7656" y="76" width="243.547" height="83" filterUnits="userSpaceOnUse" color-interpolation-filters="sRGB">
<feFlood flood-opacity="0" result="BackgroundImageFix"/>
<feColorMatrix in="SourceAlpha" type="matrix" values="0 0 0 0 0 0 0 0 0 0 0 0 0 0 0 0 0 0 127 0" result="hardAlpha"/>
<feOffset dy="4"/>
<feGaussianBlur stdDeviation="2"/>
<feComposite in2="hardAlpha" operator="out"/>
<feColorMatrix type="matrix" values="0 0 0 0 0 0 0 0 0 0 0 0 0 0 0 0 0 0 0.25 0"/>
<feBlend mode="normal" in2="BackgroundImageFix" result="effect1_dropShadow_8_21"/>
<feBlend mode="normal" in="SourceGraphic" in2="effect1_dropShadow_8_21" result="shape"/>
</filter>
<filter id="filter3_d_8_21" x="103.586" y="92.848" width="154.536" height="54.992" filterUnits="userSpaceOnUse" color-interpolation-filters="sRGB">
<feFlood flood-opacity="0" result="BackgroundImageFix"/>
<feColorMatrix in="SourceAlpha" type="matrix" values="0 0 0 0 0 0 0 0 0 0 0 0 0 0 0 0 0 0 127 0" result="hardAlpha"/>
<feOffset dy="4"/>
<feGaussianBlur stdDeviation="2"/>
<feComposite in2="hardAlpha" operator="out"/>
<feColorMatrix type="matrix" values="0 0 0 0 0 0 0 0 0 0 0 0 0 0 0 0 0 0 0.25 0"/>
<feBlend mode="normal" in2="BackgroundImageFix" result="effect1_dropShadow_8_21"/>
<feBlend mode="normal" in="SourceGraphic" in2="effect1_dropShadow_8_21" result="shape"/>
</filter>
<clipPath id="clip0_8_21">
<path d="M2 5C2 2.79086 3.79086 1 6 1H150.344C152.553 1 154.344 2.79086 154.344 5V76H6C3.79086 76 2 74.2091 2 72V5Z" fill="white"/>
</clipPath>
<clipPath id="clip1_8_21">
<path d="M61.7656 76H293.312C295.522 76 297.312 77.7909 297.312 80V147C297.312 149.209 295.522 151 293.312 151H65.7656C63.5565 151 61.7656 149.209 61.7656 147V76Z" fill="white"/>
</clipPath>
</defs>
</svg>
